inDegrees=no
num_controls=7
num_derivatives=13
num_iterations=82
num_multipliers=7
num_parameters=0
num_slacks=7
num_states=26
objective=0.454069
objective_accelerations=0.047924
objective_balance=0.000967
objective_effort=0.037575
objective_height=0.361604
objective_ligament=0.005998
solver_duration=958.071409
status=Solve_Succeeded
success=true
DataType=double
version=3
OpenSimVersion=4.5
endheader
time	/jointset/ground_pelvis/pelvis_tilt/value	/jointset/ground_pelvis/pelvis_tx/value	/jointset/ground_pelvis/pelvis_ty/value	/jointset/hip_r/hip_flexion_r/value	/jointset/hip_r/hip_adduction_r/value	/jointset/hip_r/hip_rotation_r/value	/jointset/back/lumbar_extension/value	/jointset/patellofemoral_r/patellar_flexion_r/value	/jointset/knee_r/knee_flexion_r/value	/jointset/knee_r/knee_adduction_r/value	/jointset/knee_r/knee_rotation_r/value	/jointset/ankle_r/ankle_angle_r/value	/jointset/subtalar_r/subtalar_angle_r/value	/jointset/ground_pelvis/pelvis_tilt/speed	/jointset/ground_pelvis/pelvis_tx/speed	/jointset/ground_pelvis/pelvis_ty/speed	/jointset/hip_r/hip_flexion_r/speed	/jointset/hip_r/hip_adduction_r/speed	/jointset/hip_r/hip_rotation_r/speed	/jointset/back/lumbar_extension/speed	/jointset/patellofemoral_r/patellar_flexion_r/speed	/jointset/knee_r/knee_flexion_r/speed	/jointset/knee_r/knee_adduction_r/speed	/jointset/knee_r/knee_rotation_r/speed	/jointset/ankle_r/ankle_angle_r/speed	/jointset/subtalar_r/subtalar_angle_r/speed	/forceset/tau_hip_flexion_r	/forceset/tau_hip_adduction_r	/forceset/tau_hip_rotation_r	/forceset/tau_knee_flexion_r	/forceset/tau_ankle_angle_r	/forceset/tau_subtalar_angle_r	/forceset/tau_lumbar_extension	lambda_cid13_p0	lambda_cid14_p0	lambda_cid14_p1	lambda_cid14_p2	lambda_cid14_p3	lambda_cid14_p4	lambda_cid14_p5	/jointset/ground_pelvis/pelvis_tilt/accel	/jointset/ground_pelvis/pelvis_tx/accel	/jointset/ground_pelvis/pelvis_ty/accel	/jointset/hip_r/hip_flexion_r/accel	/jointset/hip_r/hip_adduction_r/accel	/jointset/hip_r/hip_rotation_r/accel	/jointset/back/lumbar_extension/accel	/jointset/patellofemoral_r/patellar_flexion_r/accel	/jointset/knee_r/knee_flexion_r/accel	/jointset/knee_r/knee_adduction_r/accel	/jointset/knee_r/knee_rotation_r/accel	/jointset/ankle_r/ankle_angle_r/accel	/jointset/subtalar_r/subtalar_angle_r/accel	gamma_cid13_p0	gamma_cid14_p0	gamma_cid14_p1	gamma_cid14_p2	gamma_cid14_p3	gamma_cid14_p4	gamma_cid14_p5
1.5	-0.07241577003275088	0.03342414185516736	0.8182414945724419	0.796748022875353	-0.2359323637199053	-0.09685327327650996	-0.6245936553931613	0.9423595634481583	0.9423595634481589	0.0001081242495982945	0.1744887865093459	0.3022443319732986	0.120953484374547	0.4415472890851167	0.2169438454605717	0.5024544811497152	-1.977756859396714	0.04214418196405276	-0.3723531655753535	0.7969239286057171	-1.975949857134528	-1.975949857134534	0.2413853650872728	0.0001138515288752379	-0.5248366177571233	-0.1276664060182518	-0.1521154353973196	0.003405129127481977	0.02590285997390292	-0.3144308515514658	0.0211940005587267	-0.01075820487312447	0.2083969331311961	-8.815239747745231	-35.91443265035338	-10.29749346971138	1.306156672953767	-3.165030550157935	-631.0213373022075	59.66963063672637	0.1171566751515622	0.5579649976029716	-0.5013564261548245	-0.9520073015474463	-0.02216313710891659	-0.09581768063546164	1.785993827298065	-1.331408020570645	-1.331408020570654	0.7562130352714899	-0.03352655929597655	-0.6243042505889351	-0.1662449753321994	7.876308402547265e-08	-8.673480542203554e-08	-2.117516595919995e-06	-2.891175083631971e-07	2.603132666827947e-07	1.584295060906738e-07	-1.392109747864245e-06
1.51	-0.06799478196613624	0.03562125650816279	0.823239954140114	0.776924941462046	-0.2355125820092378	-0.1005836981572382	-0.6165365103585237	0.9225359017510293	0.9225359017510314	0.002558828938970215	0.1744903658663453	0.2969654134883365	0.1196680103486968	0.4425883201069833	0.2224532880366324	0.4971318878604065	-1.986602545303616	0.04178641264560722	-0.3736807868312742	0.8143950471565439	-1.988502734045942	-1.988502734045949	0.2487918715669554	0.0001893087954694738	-0.5308653408701014	-0.1294315897424776	-0.1451664277769544	0.001601561566094971	0.02565501233982548	-0.3103583629076913	0.02282800939098585	-0.01121572467261805	0.2019352491497509	-9.867773395759437	-35.10497896946227	-10.20763826197694	1.124119680549109	-3.287284290604047	-626.2758589542705	59.64244252430078	0.08825624625588395	0.5436221394108203	-0.5635230573292094	-0.8123397690540167	-0.04669505558395762	-0.143514149437182	1.711166194314385	-1.175271983366011	-1.175271983366035	0.7380185925120626	0.02596866898360981	-0.5798387368723232	-0.1825540466408636	4.886920436305094e-08	-1.259830933913932e-07	-2.104676435549301e-06	-6.091302546530857e-07	2.793038241039704e-07	1.178915699122734e-07	-1.333406302817981e-06
1.52	-0.06356524760319883	0.03787270323727945	0.8281820253194909	0.7570211050829108	-0.2350972002370308	-0.1043258552107971	-0.6083079550733108	0.9025951023934002	0.9025951023934015	0.005084628520783873	0.174492277155881	0.2916286712932001	0.1183647046904696	0.4432565483509329	0.2278102606848168	0.491176803490682	-1.993907852562212	0.04126419427229867	-0.3746996001418694	0.8312059787209581	-1.999377389234931	-1.999377389234938	0.2564043435744541	0.0001802380359237691	-0.5364013597918846	-0.131232732493627	-0.1382174201565656	-0.0002020059952887437	0.02540716470571661	-0.3062858742639167	0.02446201822324307	-0.01167324447211028	0.1954735651683262	-10.92639782239538	-34.29703696149864	-10.11684548079582	0.9405606347694885	-3.412969107496339	-621.5504854313347	59.62805218294276	0.04259611956820361	0.5274710120276052	-0.6278546422380087	-0.6439315718858667	-0.05505294808151164	-0.03405609157040673	1.653956430015579	-0.9957636760857886	-0.9957636760857886	0.7974061408346581	-0.05043216452393608	-0.5257634123500828	-0.1734367807169477	3.125068334708727e-08	-1.511897604555526e-07	-2.116587893418913e-06	-8.18129653417865e-07	2.926444564455407e-07	9.448956392065171e-08	-1.29500767709346e-06
1.53	-0.05913099771245059	0.04017688331581024	0.8330614446904172	0.7370520825886819	-0.2346875902693353	-0.1080775445626093	-0.5999147099407154	0.8825539314092771	0.8825539314092764	0.007686448798108772	0.1744938379962903	0.2862391139025157	0.117043678702179	0.4435231662677754	0.2329922278864778	0.4846078934255498	-1.99962351822879	0.04065068418053105	-0.3756489876362118	0.8473176983950702	-2.008574469990069	-2.008574469990083	0.2639128462703338	0.0001320892350211463	-0.5414218366982314	-0.1329444934009636	-0.131164734638372	-0.002074716133260194	0.02506999928584581	-0.3024511504715003	0.02620916753628662	-0.01214624636714643	0.1889222167230431	-11.98454232191832	-33.47012641581996	-10.03108662820835	0.7596666195304319	-3.516371977732663	-617.0431429695126	59.6539159660383	0.008133029572389996	0.5085912857928832	-0.6862684763914065	-0.4944401595015981	-0.06585678416289893	-0.1269442448738904	1.570977325759521	-0.839334480121264	-0.8393344801223164	0.72022654542804	0.01777982343090978	-0.4768890054554245	-0.1663042651726789	2.667473089298514e-08	-1.614772053079388e-07	-2.154797945668849e-06	-9.09177370437217e-07	2.999820433900307e-07	8.929448375248207e-08	-1.27818292189829e-06
1.54	-0.05469619396217346	0.04253188940866915	0.837872203103144	0.7170340922186955	-0.2342843867514459	-0.1118390406226657	-0.5913641080934492	0.8624292587766236	0.8624292587766226	0.01036188494468517	0.1744948745609521	0.2808020119076319	0.1157062834009289	0.4433673202578378	0.2379754635504398	0.4774446118507898	-2.003701427713677	0.039982904311224	-0.376660941790866	0.8626773216552139	-2.016077718940953	-2.016077718940974	0.2711275174247502	7.538288629191177e-05	-0.545910280631718	-0.1345065950855264	-0.1241120491201545	-0.003947426271230304	0.02473283386597403	-0.2986164266790812	0.02795631684932869	-0.01261924826218091	0.1823708682777806	-13.03879627928935	-32.64546686210213	-9.945662638642181	0.5787593262302432	-3.618559622941758	-612.563843209687	59.68648840020671	-0.04189666578776896	0.4877247044877106	-0.7467289441635875	-0.3163803355474462	-0.06590690358939578	-0.04656942363281027	1.503537147221939	-0.6569973152350901	-0.6569973152350906	0.7386398325419725	-0.05214367408922383	-0.4193568177781185	-0.1435049361622163	2.213210642765474e-08	-1.722671277143139e-07	-2.194071321782773e-06	-1.006496063655919e-06	3.075400964875752e-07	8.255270859780888e-08	-1.254053116644785e-06
1.55	-0.05026506315553191	0.04493567856359312	0.8426084248152235	0.6969835867659612	-0.2338879695990126	-0.1156114111435203	-0.5826637882064393	0.8422381245179869	0.8422381245179896	0.01310744110858509	0.1744954901088848	0.2753228044946113	0.114354299952374	0.4427893134536288	0.24274298559418	0.4697074325632055	-2.006118461967955	0.03929868765351902	-0.3778380230923536	0.8772473710052229	-2.021852133599518	-2.021852133599533	0.2779148336667662	5.878074622169981e-05	-0.5498331922008518	-0.1358524845031048	-0.1170648768324846	-0.005815188871789449	0.02429761999004302	-0.2949235521931596	0.02974020551801673	-0.01312071473428479	0.1758319024135319	-14.08476951944596	-31.82856480419973	-9.877070340728558	0.4040881507945781	-3.705623838980738	-608.3373299599194	59.71862314759125	-0.07620677938457997	0.4654226164947148	-0.8010432626963596	-0.1622136083495402	-0.07029159198830416	-0.1569894635740909	1.412846117754194	-0.4931166881643103	-0.4931166881632862	0.6381045916498194	0.02496653606784056	-0.3639961337033365	-0.1249815797527495	1.762788160156132e-08	-1.836359916502849e-07	-2.234569831913898e-06	-1.111040012060829e-06	3.153521649353785e-07	7.402887182825126e-08	-1.221506623280592e-06
1.56	-0.04584180323526663	0.04738597427139001	0.8472645085660991	0.6769173412430882	-0.2334985171221815	-0.1193962948734221	-0.5738219463681571	0.8219981554833694	0.8219981554833697	0.01591873584924335	0.1744962166394188	0.2698073204044543	0.1129898874826041	0.4417931429835482	0.2472767741250213	0.4614170196100046	-2.006849441741497	0.03858996919071962	-0.3791635836005349	0.8909817119097955	-2.025844674137971	-2.025844674137979	0.2842752327735162	9.757940750216615e-05	-0.5531656160588801	-0.1369923993285659	-0.1100177045447885	-0.007682951472334885	0.02386240611403305	-0.2912306777072392	0.03152409418670723	-0.01362218120636632	0.1692929365493039	-15.11925517708909	-31.01442042256375	-9.809875090091236	0.2306851090451372	-3.788137019913786	-604.1445999790409	59.74975604899004	-0.1255293989620197	0.4409780019078339	-0.8573756772869551	0.02083056059955772	-0.0708072646082659	-0.0762652649715828	1.33639545813469	-0.3006224912126584	-0.3006224912126589	0.6532564054887738	-0.04106351381904784	-0.3012592755570924	-0.1023100177387758	1.41368285643237e-08	-1.933948537227602e-07	-2.274639551858622e-06	-1.2080349385066e-06	3.215921656689418e-07	6.786986385920496e-08	-1.183714048007078e-06
